<?xml version="1.0" encoding="utf-8"?>
<!-- Generator: Adobe Illustrator 27.6.1, SVG Export Plug-In . SVG Version: 6.00 Build 0)  -->
<svg version="1.1" id="Layer_1" xmlns="http://www.w3.org/2000/svg" xmlns:xlink="http://www.w3.org/1999/xlink" x="0px" y="0px"
	 viewBox="0 0 600 300" style="enable-background:new 0 0 600 300;" xml:space="preserve">
<style type="text/css">
	.st0{fill:#F15A29;}
</style>
<g>
	<rect x="33.9" y="38.7" width="42.8" height="29.5"/>
	<rect x="33.9" y="80.2" width="42.8" height="110.1"/>
	<path d="M568,189.5c-2.1-4.4-3.6-8.1-4.2-11c-0.7-2.9-1-6.9-1-12v-48.2c0-5.1-1-10.6-3.1-16.3c-2.1-5.7-5-10.2-8.6-13.3
		c-5.1-4.5-11.5-7.5-19.2-8.9c-7.6-1.4-17.8-2.1-30.3-2.1c-7.8,0-15.2,0.6-21.9,1.8c-6.8,1.2-12.1,2.9-16,5
		c-5.4,3-9.6,6.5-12.5,10.6c-2.9,4.1-5.1,9.7-6.6,16.7l-0.1,0.5l40.9,4.3l0.1-0.4c1.6-4.6,3.7-7.8,6.3-9.4c3.3-2.1,8.4-3.2,15.1-3.2
		c5.1,0,8.8,1,10.8,2.9c1.9,1.9,3,5.3,3,10.1c-5,1.9-9.9,3.6-14.4,4.8c-4.6,1.2-14.9,3.5-30.5,6.6c-13.1,2.6-22.3,6.7-27.2,12.1
		c-3.1,3.4-5.2,7.4-6.4,12.1c-0.4-5.5-2.1-10.6-5.4-15.3c-3.7-5.3-9-9.4-15.8-12.2c-6.8-2.8-17.3-5-31.2-6.6c-9.1-1-15-2.3-17.7-3.6
		c-2.6-1.3-3.8-3.1-3.8-5.6c0-2.2,1-4.1,3-5.7c2-1.6,5.5-2.4,10-2.4s8.4,1.1,11.6,3.2c2.3,1.5,3.9,4,4.9,7.4l0.1,0.4l40.7-4
		l-0.2-0.6c-2.7-7.1-6.2-12.9-10.4-17.1s-9.5-7.4-15.7-9.4s-16-3-29-3c-12.4,0-22.3,1.3-29.7,3.9c-7.4,2.6-13.3,6.6-17.5,11.8
		c-4.3,5.3-6.4,11.6-6.4,18.9c0,6.7,2,12.7,5.9,17.9c3.9,5.2,8.8,8.9,14.5,11.1c5.7,2.1,15.9,4.5,30.4,7c9.6,1.7,15.6,3.2,17.8,4.3
		c3,1.5,4.5,3.7,4.5,6.5c0,2.5-1.1,4.6-3.4,6.3c-2.9,2.3-7.2,3.5-12.7,3.5c-5,0-9-1-12-3.1c-3-2-5.3-5.5-7-10.3l-0.1-0.4l-42.4,4
		V80.2h-42.8v53c0,9.7-1.6,16.6-4.7,20.3c-3.1,3.7-7.1,5.6-11.9,5.6c-4.4,0-7.9-1.3-10.3-4.1c-2.5-2.8-3.7-7.6-3.7-14.3V80.2h-43v0
		h-48.9l-30.5,35.4V38.7H85.6v151.6h43.8v-28.6l15.1-14.8l21.9,43.4h48.3L173,119l35.8-34.9v66.1c0,14.3,3.3,25.2,9.9,32.1
		c6.6,7,15.8,10.5,27.4,10.5c8.6,0,16.1-1.6,22.2-4.8c5.7-2.9,11.4-7.8,16.9-14.5v16.8h40v-30.6c2.4,10.5,8,18.8,16.5,24.5
		s22.9,8.6,42.9,8.6c14.1,0,25.4-1.8,33.7-5.5c8.2-3.5,14.4-8.4,18.2-14.4c2.2-3.5,3.8-7.1,4.7-10.7c0.3,8.4,3.8,15.6,10.3,21.4
		c6.8,6.1,16.9,9.2,30,9.2c9.8,0,18.5-1.5,26.2-4.7c5.2-2.1,10.5-5.7,15.8-10.7c0.4,2.7,0.9,4.8,1.3,6.1c0.5,1.5,1.5,3.7,3.1,6.5
		l0.1,0.2h40.3L568,189.5z M520.8,144.7c0,5.1-0.9,9.3-2.5,12.5s-4.4,5.9-8.3,8.1c-4,2.2-8.3,3.3-12.8,3.3c-4.3,0-7.6-1-9.8-3
		c-2.2-2-3.3-4.6-3.3-7.7c0-2.8,1.1-5.2,3.3-7.4c2.2-2.1,7.5-4.3,15.9-6.5c6-1.5,11.9-3.2,17.4-5.2L520.8,144.7z"/>
</g>
<g>
	<rect x="34.4" y="39.2" class="st0" width="41.8" height="28.5"/>
	<path class="st0" d="M149.5,212.1c3,0,5.5,0.7,7.3,1.5l1.2-3.8c-1.3-0.6-4.2-1.6-8.7-1.6c-11.4,0-19.1,7.1-19.1,19.1
		s7.7,18.5,18,18.5c4.4,0,7.9-0.8,9.6-1.7l-0.8-3.8c-1.9,0.9-4.8,1.5-7.7,1.5c-8.9,0-14-5.7-14-14.6
		C135.3,217.6,140.9,212.1,149.5,212.1z"/>
	<path class="st0" d="M167.8,224.1h-0.2l-0.2-5.1h-4.2c0.1,2.5,0.2,5.1,0.2,8.2l0.1,18h4.7v-14c0-0.7,0.1-1.5,0.2-2.2
		c0.7-3.6,3-6.1,6.4-6.1c0.6,0,1.1,0,1.6,0.1v-4.5c-0.4-0.1-0.8-0.1-1.3-0.1C171.9,218.4,169,220.6,167.8,224.1z"/>
	<path class="st0" d="M190.9,218.6c-7.6,0-12.3,6.3-12.3,14.1c0,7.8,4.8,13.2,12.9,13.2c4.1,0,7-0.9,8.7-1.7l-0.8-3.4
		c-1.7,0.7-3.8,1.3-7.2,1.3c-4.8,0-8.9-2.7-9-9.1l18.3,0.1c0.1-0.5,0.2-1.2,0.2-2.2C201.7,226.1,199.4,218.6,190.9,218.6z
		 M197.2,229.6h-13.9c0.4-3.3,2.4-7.7,7.3-7.7C196,221.9,197.3,226.6,197.2,229.6z"/>
	<path class="st0" d="M226.1,229.2c0-5.2-2-10.7-10-10.7c-3.3,0-6.4,0.9-8.6,2.3l1.1,3.2c1.8-1.3,4.4-2,6.8-2c5.4-0.1,6,3.9,6,6v0.6
		c-10.1,0-15.7,3.5-15.7,9.8c0,3.7,2.7,7.5,8,7.5c3.7,0,6.6-1.9,8-3.9h0.1l0.4,3.3h4.3c-0.3-1.8-0.4-4.1-0.4-6.3V229.2z
		 M221.4,231.9v4.6c0,0.5,0,1-0.2,1.5c-0.8,2.2-3,4.4-6.4,4.4c-2.3,0-4.4-1.5-4.4-4.6c0-5.1,6-6,11.1-5.9H221.4z"/>
	<path class="st0" d="M239.3,211.5l-4.7,1.2v6.3h-4.1v3.6h4.1v14.3c0,3,0.6,5.3,1.9,6.8c1.1,1.3,2.9,2,5.1,2c1.9,0,3.4-0.3,4.3-0.7
		l-0.2-3.6c-0.7,0.3-1.6,0.4-2.8,0.4c-2.7,0-3.6-1.8-3.6-5.1v-14.1h6.8V219h-6.8V211.5z"/>
	<rect x="251.5" y="219.1" class="st0" width="4.7" height="26.2"/>
	<path class="st0" d="M253.9,208.7c-1.8,0-3,1.4-3,3c0,1.7,1.2,3,2.9,3c1.9,0,3-1.4,3-3C256.8,210,255.7,208.7,253.9,208.7z"/>
	<path class="st0" d="M275.5,233.8c-0.8,2.4-1.6,4.6-2.2,6.8h-0.1c-0.5-2.2-1.2-4.4-2.1-6.8l-5.1-14.7h-5.2l10,26.2h4.5l10.3-26.2
		h-5L275.5,233.8z"/>
	<path class="st0" d="M300.1,218.6c-7.6,0-12.3,6.3-12.3,14.1c0,7.8,4.9,13.2,12.9,13.2c4.1,0,7-0.9,8.7-1.7l-0.8-3.4
		c-1.7,0.7-3.8,1.3-7.2,1.3c-4.8,0-8.9-2.7-9-9.1l18.3,0.1c0.1-0.5,0.2-1.2,0.2-2.2C310.9,226.1,308.6,218.6,300.1,218.6z
		 M292.4,229.6c0.4-3.3,2.4-7.7,7.3-7.7c5.4,0,6.6,4.7,6.6,7.7H292.4z"/>
	<path class="st0" d="M339.4,224.7c-5.1-1.9-7.3-3.6-7.3-7c0-2.5,1.9-5.5,6.9-5.5c3.3,0,5.7,1,6.9,1.7l1.3-3.9
		c-1.5-0.9-4.3-1.8-8-1.8c-7.1,0-11.8,4.2-11.8,9.9c0,5.2,3.6,8.3,9.6,10.4c4.9,1.8,6.9,3.8,6.9,7.2c0,3.7-2.9,6.2-7.7,6.2
		c-3.2,0-6.3-1.1-8.4-2.4l-1.2,4.1c1.9,1.3,5.8,2.4,9.3,2.4c8.7,0,12.8-5.1,12.8-10.5C348.7,230.1,345.6,227.1,339.4,224.7z"/>
	<path class="st0" d="M360.6,211.5l-4.7,1.2v6.3h-4.1v3.6h4.1v14.3c0,3,0.6,5.3,1.9,6.8c1.1,1.3,2.9,2,5.1,2c1.9,0,3.4-0.3,4.3-0.7
		l-0.2-3.6c-0.7,0.3-1.6,0.4-2.8,0.4c-2.7,0-3.6-1.8-3.6-5.1v-14.1h6.8V219h-6.8V211.5z"/>
	<path class="st0" d="M394.7,219.2H390v16c0,0.9-0.2,1.7-0.4,2.4c-0.9,2.2-3.1,4.4-6.3,4.4c-4.3,0-5.9-3.4-5.9-8.4v-14.5h-4.7v15.3
		c0,9.2,4.9,11.5,9,11.5c4.7,0,7.5-2.8,8.7-4.9h0.1l0.2,4.3h4.2c-0.1-2.1-0.2-4.4-0.2-7.2V219.2z"/>
	<path class="st0" d="M425.2,206.8l-4.6,0.1v15.6h-0.1c-1.2-2.1-3.9-4-7.9-4c-6.4,0-11.8,5.3-11.8,14.1c0,7.9,4.8,13.3,11.2,13.3
		c4.3,0,7.4-2.2,8.9-5.1h0.1l0.2,4.5h4.2c-0.1-1.8-0.2-4.5-0.2-6.8V206.8z M420.5,234.3c0,0.7,0,1.4-0.2,2c-0.9,3.6-3.8,5.7-7,5.7
		c-5.2,0-7.8-4.4-7.8-9.7c0-5.8,3-10.1,7.9-10.1c3.6,0,6.2,2.5,6.9,5.5c0.1,0.6,0.2,1.4,0.2,2V234.3z"/>
	<path class="st0" d="M435.6,208.7c-1.8,0-3,1.4-3,3c0,1.7,1.2,3,2.9,3c1.9,0,3-1.4,3-3C438.4,210,437.4,208.7,435.6,208.7z"/>
	<rect x="433.1" y="219.1" class="st0" width="4.7" height="26.2"/>
	<path class="st0" d="M456.9,218.4c-7.2,0-13,5.1-13,13.9c0,8.3,5.5,13.5,12.6,13.5c6.3,0,13-4.2,13-13.9
		C469.5,223.9,464.1,218.4,456.9,218.4z M456.7,242.3c-4.6,0-7.9-4.3-7.9-10.1c0-4.9,2.3-10.1,8-10.1c5.7,0,7.9,5.6,7.9,10
		C464.7,238,461.3,242.3,456.7,242.3z"/>
</g>
</svg>
